<svg xmlns="http://www.w3.org/2000/svg" viewBox="0 0 30 24.64"><defs><style>.cls-1{fill:#ede7df;}</style></defs><title>ico-list-b</title><g id="Ebene_2" data-name="Ebene 2"><g id="bg"><g id="_707-albums-selected_2x.png" data-name="707-albums-selected@2x.png"><path class="cls-1" d="M5.36,1.07H24.64a.54.54,0,1,0,0-1.07H5.36a.54.54,0,1,0,0,1.07ZM3.21,3.21H26.79a.54.54,0,0,0,0-1.07H3.21a.54.54,0,0,0,0,1.07ZM28.93,4.29H1.07A1.07,1.07,0,0,0,0,5.36V23.57a1.07,1.07,0,0,0,1.07,1.07H28.93A1.07,1.07,0,0,0,30,23.57V5.36A1.07,1.07,0,0,0,28.93,4.29Z"/></g></g></g></svg>