<svg xmlns="http://www.w3.org/2000/svg" viewBox="0 0 59.44 30"><defs><style>.cls-1{fill:#ffce00;}</style></defs><title>ico-login</title><g id="Ebene_2" data-name="Ebene 2"><g id="bg"><g id="_899-key_2x.png" data-name="899-key@2x.png"><path class="cls-1" d="M6.75,11.46a5,5,0,1,0,7.07,0A5,5,0,0,0,6.75,11.46Zm5.89,5.9a3.33,3.33,0,1,1,0-4.72A3.33,3.33,0,0,1,12.64,17.36Zm46.55-2.95L53.3,8.52A.8.8,0,0,0,53,8.34h0a.81.81,0,0,0-.31-.06H28.4c-.13-.26-.28-.52-.43-.78l-.24-.4c-.13-.21-.27-.43-.42-.64s-.27-.38-.42-.57l-.36-.47c-.29-.35-.6-.69-.92-1a15,15,0,1,0,0,21.22c.33-.33.63-.67.92-1l.35-.46c.15-.19.3-.39.44-.59s.28-.42.41-.63l.24-.4c.15-.26.3-.52.43-.78H38.57a.85.85,0,0,0,.31-.06h0a1.07,1.07,0,0,0,.28-.19l3-2.94,2.94,2.94a.83.83,0,0,0,1.18,0l3-2.94,2.94,2.94a.83.83,0,0,0,1.18,0l5.89-5.89A.83.83,0,0,0,59.19,14.41Zm-6.48,5.3-2.94-2.94a.83.83,0,0,0-1.18,0l-3,2.94-3-2.94a.82.82,0,0,0-1.17,0l-3.3,3.29H28a.84.84,0,0,0-.67.23.8.8,0,0,0-.19.32h0a13.42,13.42,0,1,1,0-11.21h0a.84.84,0,0,0,.19.31.83.83,0,0,0,.66.23H52.37L57.43,15Z"/></g></g></g></svg>