<svg xmlns="http://www.w3.org/2000/svg" viewBox="0 0 30 30"><defs><style>.cls-1{fill:#ede7df;}</style></defs><title>ico-cog-a</title><g id="Ebene_2" data-name="Ebene 2"><g id="bg"><g id="_740-gear_2x.png" data-name="740-gear@2x.png"><path class="cls-1" d="M15,9.64A5.36,5.36,0,1,0,20.36,15,5.36,5.36,0,0,0,15,9.64Zm0,9.65A4.29,4.29,0,1,1,19.29,15,4.29,4.29,0,0,1,15,19.29Zm14.61-6.4h0l-3.84-1.1a11.19,11.19,0,0,0-.88-2.11l1.94-3.5h0a.5.5,0,0,0-.08-.63L24.47,3.26a.5.5,0,0,0-.63-.08h0l-3.5,1.94a11.61,11.61,0,0,0-2.11-.89L17.12.39h0a.52.52,0,0,0-.5-.39H13.39a.52.52,0,0,0-.5.39h0l-1.1,3.83a11.8,11.8,0,0,0-2,.83L6.22,3.12h0a.53.53,0,0,0-.64.09L3.22,5.57a.53.53,0,0,0-.09.64h0L5.06,9.77a11.75,11.75,0,0,0-.8,1.9L.39,12.81h0a.54.54,0,0,0-.39.52v3.32a.54.54,0,0,0,.39.52h0l3.87,1.14a11.75,11.75,0,0,0,.8,1.9L3.12,23.78h0a.53.53,0,0,0,.09.64l2.35,2.35a.53.53,0,0,0,.64.09h0L9.77,25a11.39,11.39,0,0,0,1.9.8l1.14,3.86h0a.54.54,0,0,0,.52.39h3.32a.54.54,0,0,0,.52-.39h0l1.14-3.86a11.16,11.16,0,0,0,2-.86l3.49,1.94h0a.5.5,0,0,0,.63-.08l2.27-2.27a.5.5,0,0,0,.08-.63h0l-1.94-3.5a11.19,11.19,0,0,0,.88-2.11l3.84-1.1h0a.52.52,0,0,0,.39-.5V13.39A.52.52,0,0,0,29.61,12.89Zm-.68,3.31-4,1.16a10.08,10.08,0,0,1-1.23,3l2,3.67L24,25.7l-3.67-2a10,10,0,0,1-2.89,1.21l-1.2,4.06H13.76l-1.2-4.06A10,10,0,0,1,9.74,23.7L6,25.73,4.27,24l2-3.71a10,10,0,0,1-1.17-2.82l-4.06-1.2V13.76l4.06-1.2A10,10,0,0,1,6.3,9.74L4.27,6,6,4.27l3.71,2a10,10,0,0,1,2.9-1.19l1.16-4h2.4l1.16,4a10.08,10.08,0,0,1,3,1.23L24,4.3,25.7,6l-2,3.67a10.08,10.08,0,0,1,1.23,3l4,1.16Z"/></g></g></g></svg>