<svg xmlns="http://www.w3.org/2000/svg" viewBox="0 0 209.81 110.75"><defs><style>.cls-1{fill:#c6c6c6;}</style></defs><title>logo</title><g id="Ebene_2" data-name="Ebene 2"><g id="bg"><path class="cls-1" d="M146,10.62c-.15.26-.49.72-1.84,1.48a97.32,97.32,0,0,1-17.95,8.11,106.47,106.47,0,0,1-22.58,4.13c-.39,0-.35-.18-.08-.42l4.82-4.3a1.82,1.82,0,0,1,.93-.39c2.27-.22,11.17-1.22,18-2.66a133.39,133.39,0,0,0,16.8-5.31A7.66,7.66,0,0,1,146,10.62ZM130.43,21.39a10.19,10.19,0,0,0-2.14.66,118.06,118.06,0,0,1-15.1,3.74,115.54,115.54,0,0,1-12.86,1.53,1.74,1.74,0,0,0-.94.42l-4.7,4.11c-.34.3-.32.48.14.43A134.18,134.18,0,0,0,112.54,29a88.36,88.36,0,0,0,16-6.33A6.49,6.49,0,0,0,130.43,21.39ZM46.29,53.26c7-1.65,20.64-5.58,32.65-13.45,13.57-8.89,25.4-20.76,27.58-23a2,2,0,0,1,1.24-.44c3.6-.33,17.55-1.74,29.24-5.11a96.8,96.8,0,0,0,21.48-9.7c2.8-1.67,2.69-2-.23-.93-4.5,1.74-11.61,4.68-19.14,6-16.92,3-29.11,2.92-33.75,3.54-3.57.48-5.32,2.87-6.77,4.44a95.52,95.52,0,0,1-8.76,9.28l-.15-.09a2.08,2.08,0,0,0-1.61.24,6.24,6.24,0,0,0-1.32,1.11c-.12.15-.24.09-.24-.05s-.16-3.47-.25-5.33c-.13-2.64-.84-4.53-.77-5.32s.6-.65,1.24-2.79a4.69,4.69,0,0,0-.6-4.51,19.61,19.61,0,0,0-3.51-3.87,14.31,14.31,0,0,0-4.51-2.11,17.89,17.89,0,0,0-7.89-.06,5.48,5.48,0,0,0-3.81,3.28,12.74,12.74,0,0,0-.09,3.26v0a7.88,7.88,0,0,1-.18,2c-.14.66-.86,1.91-.8,2.54a2.67,2.67,0,0,0,.43,1.27.48.48,0,0,1,.06.53s0,0-.08,0h-.43s-.12,0-.12.06.15,0,.29.26-.24.59-.24.59-1.32,1.33-1.59,1.59a3.51,3.51,0,0,0-.82,1.15.91.91,0,0,0,.53,1.09c.46.21.84.12.88.72a3.34,3.34,0,0,1,0,.81c-.25.12-.26.27-.26.53s.13.29.21.29.06,0,.06.12,0,.14,0,.14-.21.17-.21.34a.59.59,0,0,0,.25.52c.26.13.55.37.54.57s0,1.32,0,1.84a.85.85,0,0,0,.85.87c.54.05.6.29,1.8.57.76.18,1.57.05,1.87.46a2.69,2.69,0,0,1,.34,2,2.43,2.43,0,0,1-1.78.93c-.89.16-2.09.93-2.23,1.71s.19,1.54-.06,2.16-.74.81-1.09,1.18a1.88,1.88,0,0,0-.6,1.75,3.9,3.9,0,0,1-.09,2c-.21.26-.6.41-1.35,1.13a4.59,4.59,0,0,0-1.31,1.79,22,22,0,0,0-.63,3.91c-5.76,3.16-11,5.64-14.53,7.21C43.19,53.56,43.29,54,46.29,53.26Zm63-20.17a11.23,11.23,0,0,0,2.23-1.3c.13-.21-1.24.25-2.23.53A79.75,79.75,0,0,1,98.12,34.5c-4.11.61-6.67.92-7.65,1a1.83,1.83,0,0,0-.94.4l-5.48,3.9c-.47.33-.39.46.15.38a107,107,0,0,0,12.85-2.65A95,95,0,0,0,109.25,33.09ZM2.15,67.56c0-1.89,1.56-2.9,3.52-2.9a8.65,8.65,0,0,1,3.19.75c.07-.19.42-1.46.42-1.46a9.15,9.15,0,0,0-3.74-.75A5.06,5.06,0,0,0,.13,68.41c0,5.76,9,5.83,9,10.32,0,2-1.69,3.29-3.91,3.29A8.36,8.36,0,0,1,.46,80.33C.35,80.66,0,82,0,82c1.39,1.11,4,1.43,5.5,1.43,3.29,0,5.67-2.08,5.67-5.18C11.17,71.8,2.15,72.58,2.15,67.56ZM18.62,83.39a4.25,4.25,0,0,1-4.49-4c0-4,4.76-4.69,7.63-4.69v-.36c0-2.48-1.18-3.39-2.09-3.39a13.76,13.76,0,0,0-3.81.55S15.41,70,15.41,70a17.35,17.35,0,0,1,4.33-.52c2.66,0,4.17,1.72,4.17,5v7.23A13.63,13.63,0,0,0,24.1,83L22,83.26a3.43,3.43,0,0,1-.19-1A5.13,5.13,0,0,1,18.62,83.39ZM19.21,82a3.38,3.38,0,0,0,2.55-1.24V76.1c-3.49,0-5.15,1.26-5.15,3.29A2.77,2.77,0,0,0,19.21,82Zm11.44,1a3.88,3.88,0,0,1-.4-1.63V61.57l-2.08.26V81.34a4.34,4.34,0,0,0,.39,1.92ZM49.93,61.6v9.19a4.5,4.5,0,0,1,3.32-1.34c3.62,0,5.41,2.77,5.41,6.78,0,3.84-2.44,7.16-5.83,7.16a4.92,4.92,0,0,1-4.6-2.9,9.41,9.41,0,0,1-.39-3.19V61.86Zm0,11.14v6a4.9,4.9,0,0,0,.26,1.63A3.09,3.09,0,0,0,52.83,82c2.05,0,3.48-2.61,3.48-5.67s-.65-5.44-3.06-5.44A4.13,4.13,0,0,0,49.93,72.74Zm20.78,9.38a3.54,3.54,0,0,0,.2,1.14L73.06,83a4,4,0,0,1-.2-1.37V69.71L70.71,70V80.46a5.47,5.47,0,0,1-3.23,1.46c-2,0-3.42-2-3.42-5.11v-7.1L62,70V77.2c0,3.84,2.18,6.22,5.56,6.22C68.23,83.42,70.12,83,70.71,82.12Zm8.66.88V73a3.48,3.48,0,0,1,2.8-2.06,3.13,3.13,0,0,1,2.22.82L84.88,70a5.69,5.69,0,0,0-2.51-.59,3.42,3.42,0,0,0-2.93,1.5h-.07a5,5,0,0,0-.19-1.17L77,70a7.31,7.31,0,0,1,.19,1.47V83.26Zm19.45,4.79c0,2.41-3,3.74-6.65,3.74a15.65,15.65,0,0,1-5.66-1.2c.16-.52.29-1,.42-1.47a14.76,14.76,0,0,0,5.24,1.28c2.68,0,4.66-1.21,4.66-2.35,0-2.09-3.36-2.51-6.09-3.42-2-.69-2.51-1.76-2.51-2.61s.56-1.59,2.41-2.08l0-.07a5.25,5.25,0,0,1-4.27-5.18A5.72,5.72,0,0,1,94.55,70,8.94,8.94,0,0,0,98,69.19a10.45,10.45,0,0,1,.36,1.37,7.45,7.45,0,0,1-2.35.55,5.41,5.41,0,0,1,1.63,3.36A5.29,5.29,0,0,1,95,79c-2.38,1.3-2.9,1-4.52,1.83-.14.06-.27.58-.27.78C90.25,83.72,98.82,82.42,98.82,87.79Zm-6.65-9.25c1.37,0,3.07-1.76,3.07-4.11a3.39,3.39,0,0,0-3.19-3.58c-2,0-3.3,2.09-3.3,3.58C88.75,76.94,90.15,78.54,92.17,78.54ZM206.8,102.48c-3-.16-7.23-.27-7.23-.27l-39.94-.2c-.27-3.13-1.74-5.12-5-5.12a5.3,5.3,0,0,0-3.5,1.35,3.72,3.72,0,0,0-.2-1.15l-2.09.26a6.7,6.7,0,0,1,.2,1.41v11.73l2.12-.26v-9.7a4.61,4.61,0,0,1,3.47-2.25c2.25,0,2.92,2.18,2.92,5.2v7l2.09-.26V103.4l39.53-.12s7.81-.18,7.48-.2C209.94,102.9,211.61,102.71,206.8,102.48Zm-156-8.75c-.22,2,.78,6.27,5.11,6.27a12,12,0,0,0,3-.32s.42,1.45.42,1.47a16.47,16.47,0,0,1-3.47.39c-5.72,0-7.45-3.73-7.45-7.39s2.18-6.46,6-6.46c3.31,0,5.5,2.64,5.5,6Zm.2-1.35h6.52A3.32,3.32,0,0,0,54.38,89,3.68,3.68,0,0,0,51,92.38Zm15.83,9.12a13.44,13.44,0,0,0,2.32-.31s.45-1.51.45-1.55a12,12,0,0,1-2.63.42c-1,.07-1.39-1.35-1.39-3.12V89.43h3.31l.39-1.36h-3.7V84.8a10.49,10.49,0,0,1-3.79,4.63h1.67v8.09C63.41,100.51,65,101.54,66.78,101.5ZM78.42,90.6l7.26,19.63-2.34.26-2.6-7.07H74l-2.58,6.81-1.41.26,2.49-7.08-27.4-.1a9.71,9.71,0,0,1-.31,2.19,5.48,5.48,0,0,1-5.21,4.12,5.57,5.57,0,0,1-1.83-.32c.1-.3.16-.52.26-.91,2.8,1.13,4.7-1.75,4.9-5.09l-9.74,0c-5.78,0-12-.22-15.49-.36-.42,0-.38-.23,0-.24,3.93-.17,11.18-.47,14.92-.47l10.33,0v-19H33.48v-.52l8.05-11.4H33.91l.39-1.37H44.65v.49L36.57,81.79h8.54v0h.06v20.35c10,0,22.72-.1,27.85-.14l3.93-11.17ZM80.31,102l-3-8.09h-.06L74.47,102h5.84Zm12.25,5-4.12-9.83-2.21.26,5.62,13.37.71-.26,5.2-13.37-1.54.26Zm8.51-15.52a1.39,1.39,0,1,0,1.38,1.39A1.37,1.37,0,0,0,101.07,91.43Zm-1,19.06,2-.26V97.12l-2,.26Zm15.35-1.61a12.85,12.85,0,0,0,.2,1.35l-2.12.26a3.26,3.26,0,0,1-.2-1,5,5,0,0,1-3.08,1.12,4.2,4.2,0,0,1-4.44-4c0-4,4.7-4.62,7.52-4.62v-.36c0-2.44-1.16-3.34-2-3.34a13.41,13.41,0,0,0-3.76.55s-.45-1.51-.45-1.51a17,17,0,0,1,4.27-.51c2.64,0,4.11,1.7,4.11,4.88Zm-2.12-5.46c-3.44,0-5.07,1.25-5.07,3.24a2.72,2.72,0,0,0,2.57,2.54,3.31,3.31,0,0,0,2.5-1.22Zm8.78,2.7V98.6h3.31l.38-1.35h-3.69V94a10.44,10.44,0,0,1-3.8,4.63H120v8.1c0,3,1.57,4,3.37,4a14.56,14.56,0,0,0,2.31-.32s.45-1.51.45-1.54a12.61,12.61,0,0,1-2.63.42C122.51,109.3,122.09,107.89,122.09,106.12Zm6.91,4.37,2.05-.26V97.12l-2.05.26Zm1-19.06a1.39,1.39,0,1,0,1.38,1.39A1.37,1.37,0,0,0,130,91.43Zm15.9,12c0,3.79-2.4,7.19-5.74,7.19s-5.76-3.4-5.76-7.19,2.41-6.53,5.76-6.53S145.89,99.63,145.89,103.42Zm-2.31.06c0-3-1.41-5.24-3.43-5.24s-3.44,2.22-3.44,5.24,1.41,5.72,3.44,5.72S143.58,106.5,143.58,103.48Z"/></g></g></svg>